# xmcd
#
# Track frame offsets:
#	150
#	15208
#	34224
#	56394
#	73051
#	87349
#	103121
#	119478
#	137356
#	168791
#	187155
#	205084
#	223947
#	238310
#
# Disc length: 3417 seconds
#
# Revision: 1
# Processed by: cddbd v1.5.2PL0 Copyright (c) Steve Scherf et al.
# Submitted via: audiograbber 1.83.01
#
DISCID=c70d570e
DTITLE=Alabama - Playlist - The Very Best Of
DYEAR=2008
DGENRE=Country
TTITLE0=Love In The First Degree
TTITLE1=Mountain Music
TTITLE2=Pass It On Down
TTITLE3=Jukebox In My Mind
TTITLE4=Southern Star
TTITLE5=Down Home
TTITLE6=The Closer You Get
TTITLE7=Hats Off
TTITLE8=When It All Goes South (Extended Version)
TTITLE9=My Home's In Alabama (Single Edit)
TTITLE10=Tar Top
TTITLE11=Gonna Have A Party
TTITLE12=Say I
TTITLE13=Small Stuff
EXTD=
EXTT0=
EXTT1=
EXTT2=
EXTT3=
EXTT4=
EXTT5=
EXTT6=
EXTT7=
EXTT8=
EXTT9=
EXTT10=
EXTT11=
EXTT12=
EXTT13=
PLAYORDER=
